<?xml version="1.0" encoding="UTF-8" standalone="no"?>
<svg
   xmlns:dc="http://purl.org/dc/elements/1.1/"
   xmlns:cc="http://creativecommons.org/ns#"
   xmlns:rdf="http://www.w3.org/1999/02/22-rdf-syntax-ns#"
   xmlns:svg="http://www.w3.org/2000/svg"
   xmlns="http://www.w3.org/2000/svg"
   xmlns:sodipodi="http://sodipodi.sourceforge.net/DTD/sodipodi-0.dtd"
   xmlns:inkscape="http://www.inkscape.org/namespaces/inkscape"
   inkscape:export-ydpi="96"
   inkscape:export-xdpi="96"
   inkscape:export-filename="/Users/pagem/Documents/workspace/komondor-web/static/icon.png"
   inkscape:version="1.0beta1 (fe3e306, 2019-09-17)"
   height="512"
   width="512"
   sodipodi:docname="icon.svg"
   id="svg923"
   version="1.1"
   class="svg-inline--fa fa-dna fa-w-14 fa-3x"
   viewBox="0 0 512 512"
   role="img"
   data-icon="dna"
   data-prefix="fas"
   focusable="false"
   aria-hidden="true">
  <metadata
     id="metadata929">
    <rdf:RDF>
      <cc:Work
         rdf:about="">
        <dc:format>image/svg+xml</dc:format>
        <dc:type
           rdf:resource="http://purl.org/dc/dcmitype/StillImage" />
        <dc:title></dc:title>
      </cc:Work>
    </rdf:RDF>
  </metadata>
  <defs
     id="defs927" />
  <sodipodi:namedview
     inkscape:current-layer="svg923"
     inkscape:window-maximized="0"
     inkscape:window-y="150"
     inkscape:window-x="1371"
     inkscape:cy="369.26102"
     inkscape:cx="240.50748"
     inkscape:zoom="0.82616352"
     showgrid="false"
     id="namedview925"
     inkscape:window-height="965"
     inkscape:window-width="1894"
     inkscape:pageshadow="2"
     inkscape:pageopacity="0"
     guidetolerance="10"
     gridtolerance="10"
     objecttolerance="10"
     borderopacity="1"
     inkscape:document-rotation="0"
     bordercolor="#666666"
     pagecolor="#ffffff" />
  <path
     style="fill:#ffffff;fill-opacity:1"
     inkscape:connector-curvature="0"
     id="path921"
     class=""
     d="m 479.90846,494.10123 c 1.1,9.5 -6.29999,17.8 -15.89999,17.8 l -32.3,0.1 c -8.1,0 -14.9,-5.9 -16,-13.9 -0.7,-4.9 -1.8,-11.1 -3.4,-18.1 H 100.00853 c -1.6,6.9 -2.9,13.2 -3.5,18.1 -1.1,8 -7.9,14 -16,13.9 l -32.300002,-0.1 c -9.6,0 -17.1,-8.3 -15.89999,-17.8 4.6,-37.9 25.59999,-129 118.899982,-207.7 17.59999,12.4 37.09999,24.2 58.49999,35.4 -6.2,4.6 -11.4,9.4 -17,14.2 h 127.59998 c -21.3,-18.1 -46.99999,-35.6 -78.69999,-51.4 C 69.50853,199.10123 37.908538,65.801232 32.108538,17.901232 31.008528,8.4012318 38.408528,0.10123178 48.008528,0.10123178 l 32.400002,-0.1 c 8.1,0 14.9,5.90000002 16,13.90000022 0.7,4.9 1.8,11.1 3.4,18.1 h 312.39994 c 1.6,-7 2.7,-13.1 3.4,-18.1 1.1,-8.0000002 7.9,-14.00000022 16,-13.90000022 l 32.3,0.1 c 9.6,0 17.09999,8.30000002 15.99999,17.80000022 -5.2,42.9 -31.29999,153.899998 -159.89997,238.099998 128.49998,84.2 154.69997,195.2 159.89997,238.1 z m -223.89996,-274.5 c 25.09999,-13.7 46.39999,-28.4 64.29999,-43.6 H 191.80851 c 17.8,15.2 39.09999,30 64.19999,43.6 z M 124.90852,96.001232 c 5.8,10.399998 12.8,21.099998 21,31.999998 h 220.09996 c 8.3,-10.9 15.3,-21.6 21,-31.999998 z M 387.10848,416.00123 c -5.8,-10.4 -12.8,-21.1 -21,-32 H 146.70852 c -8.3,10.9 -15.4,21.6 -21.2,32 z"
     fill="currentColor" />
</svg>
